<mxfile host="Electron" modified="2024-01-08T07:05:56.234Z" agent="Mozilla/5.0 (X11; Linux x86_64) AppleWebKit/537.36 (KHTML, like Gecko) draw.io/21.6.5 Chrome/114.0.5735.243 Electron/25.3.1 Safari/537.36" etag="RCNO6mCl0MBBd7FrjI3Z" version="21.6.5" type="device">
  <diagram name="Page-1" id="ew7vi9b7o_5ddHdVxSJt">
    <mxGraphModel dx="813" dy="497" grid="1" gridSize="10" guides="1" tooltips="1" connect="1" arrows="1" fold="1" page="1" pageScale="1" pageWidth="850" pageHeight="1100" math="0" shadow="0">
      <root>
        <mxCell id="0" />
        <mxCell id="1" parent="0" />
        <mxCell id="nUKhyI13u18EGrhSwZpv-29" value="" style="edgeStyle=orthogonalEdgeStyle;shape=connector;curved=0;rounded=1;orthogonalLoop=1;jettySize=auto;html=1;labelBackgroundColor=default;strokeColor=#666666;strokeWidth=3;fontFamily=Helvetica;fontSize=11;fontColor=default;startArrow=none;startFill=0;endArrow=openThin;endFill=0;" edge="1" parent="1" source="lI_EmPgApQuugRqTcfI--1" target="lI_EmPgApQuugRqTcfI--5">
          <mxGeometry relative="1" as="geometry" />
        </mxCell>
        <mxCell id="lI_EmPgApQuugRqTcfI--1" value="Start" style="strokeWidth=3;html=1;shape=mxgraph.flowchart.start_2;whiteSpace=wrap;labelBackgroundColor=none;fillColor=#ffffff;strokeColor=#666666;fontColor=#666666;fontSize=12;fontStyle=0;rounded=1;arcSize=50;" parent="1" vertex="1">
          <mxGeometry x="850" y="32" width="50" height="50" as="geometry" />
        </mxCell>
        <mxCell id="nUKhyI13u18EGrhSwZpv-39" style="edgeStyle=orthogonalEdgeStyle;shape=connector;curved=0;rounded=1;orthogonalLoop=1;jettySize=auto;html=1;labelBackgroundColor=default;strokeColor=#666666;strokeWidth=3;fontFamily=Helvetica;fontSize=11;fontColor=default;startArrow=none;startFill=0;endArrow=openThin;endFill=0;" edge="1" parent="1" source="lI_EmPgApQuugRqTcfI--2" target="lI_EmPgApQuugRqTcfI--32">
          <mxGeometry relative="1" as="geometry" />
        </mxCell>
        <mxCell id="lI_EmPgApQuugRqTcfI--2" value="Parse Locations" style="rounded=1;whiteSpace=wrap;html=1;absoluteArcSize=1;arcSize=50;strokeWidth=3;strokeColor=#666666;fontFamily=Helvetica;fontSize=12;fontColor=#666666;fillColor=#ffffff;fontStyle=0;labelBackgroundColor=none;" parent="1" vertex="1">
          <mxGeometry x="1087.5" y="100" width="125" height="40" as="geometry" />
        </mxCell>
        <mxCell id="nUKhyI13u18EGrhSwZpv-35" value="" style="edgeStyle=orthogonalEdgeStyle;shape=connector;curved=0;rounded=1;orthogonalLoop=1;jettySize=auto;html=1;labelBackgroundColor=default;strokeColor=#666666;strokeWidth=3;fontFamily=Helvetica;fontSize=11;fontColor=default;startArrow=none;startFill=0;endArrow=openThin;endFill=0;" edge="1" parent="1" source="lI_EmPgApQuugRqTcfI--3" target="lI_EmPgApQuugRqTcfI--2">
          <mxGeometry relative="1" as="geometry" />
        </mxCell>
        <mxCell id="lI_EmPgApQuugRqTcfI--3" value="Parse Application Information" style="rounded=1;whiteSpace=wrap;html=1;absoluteArcSize=1;arcSize=50;strokeWidth=3;strokeColor=#666666;fontFamily=Helvetica;fontSize=12;fontColor=#666666;fillColor=#ffffff;fontStyle=0;labelBackgroundColor=none;" parent="1" vertex="1">
          <mxGeometry x="1080" y="37" width="140" height="40" as="geometry" />
        </mxCell>
        <mxCell id="nUKhyI13u18EGrhSwZpv-30" value="" style="edgeStyle=orthogonalEdgeStyle;shape=connector;curved=0;rounded=1;orthogonalLoop=1;jettySize=auto;html=1;labelBackgroundColor=default;strokeColor=#666666;strokeWidth=3;fontFamily=Helvetica;fontSize=11;fontColor=default;startArrow=none;startFill=0;endArrow=openThin;endFill=0;" edge="1" parent="1" source="lI_EmPgApQuugRqTcfI--5" target="lI_EmPgApQuugRqTcfI--3">
          <mxGeometry relative="1" as="geometry" />
        </mxCell>
        <mxCell id="lI_EmPgApQuugRqTcfI--5" value="Load YAML file" style="rounded=1;whiteSpace=wrap;html=1;absoluteArcSize=1;arcSize=50;strokeWidth=3;strokeColor=#666666;fontFamily=Helvetica;fontSize=12;fontColor=#666666;fillColor=#ffffff;fontStyle=0;labelBackgroundColor=none;" parent="1" vertex="1">
          <mxGeometry x="945" y="37" width="100" height="40" as="geometry" />
        </mxCell>
        <mxCell id="nUKhyI13u18EGrhSwZpv-40" style="edgeStyle=orthogonalEdgeStyle;shape=connector;curved=0;rounded=1;orthogonalLoop=1;jettySize=auto;html=1;labelBackgroundColor=default;strokeColor=#666666;strokeWidth=3;fontFamily=Helvetica;fontSize=11;fontColor=default;startArrow=none;startFill=0;endArrow=openThin;endFill=0;" edge="1" parent="1" source="lI_EmPgApQuugRqTcfI--32" target="nUKhyI13u18EGrhSwZpv-21">
          <mxGeometry relative="1" as="geometry" />
        </mxCell>
        <mxCell id="lI_EmPgApQuugRqTcfI--32" value="Return data structure" style="rounded=1;whiteSpace=wrap;html=1;absoluteArcSize=1;arcSize=50;strokeWidth=3;strokeColor=#666666;fontFamily=Helvetica;fontSize=12;fontColor=#666666;fillColor=#ffffff;fontStyle=0;labelBackgroundColor=none;" parent="1" vertex="1">
          <mxGeometry x="930" y="100" width="130" height="40" as="geometry" />
        </mxCell>
        <mxCell id="nUKhyI13u18EGrhSwZpv-21" value="End" style="strokeWidth=3;html=1;shape=mxgraph.flowchart.start_2;whiteSpace=wrap;labelBackgroundColor=none;fillColor=#ffffff;strokeColor=#666666;fontColor=#666666;fontSize=12;fontStyle=0;rounded=1;arcSize=50;" vertex="1" parent="1">
          <mxGeometry x="850" y="95" width="50" height="50" as="geometry" />
        </mxCell>
      </root>
    </mxGraphModel>
  </diagram>
</mxfile>
